# xmcd
#
# Track frame offsets: 
#        150
#        18670
#        37495
#        50472
#        63625
#        77360
#        96342
#        107570
#        122040
#        136535
#
# Disc length: 1999 seconds
#
# Revision: 3
# Processed by: cddbd v1.4PL0 Copyright (c) Steve Scherf et al.
# Submitted via: ExactAudioCopy v0.95a3
#
DISCID=8407cd0a
DTITLE=Don Williams - The Best Of Don Williams Vol. III
DYEAR=1984
DGENRE=Country
TTITLE0=I Believe In You
TTITLE1=Lord, I Hope This Day Is Good
TTITLE2=Lay Down Beside Me
TTITLE3=Mistakes
TTITLE4=Miracles
TTITLE5=Good Ole Boys Like Me
TTITLE6=It Must Be Love
TTITLE7=Listen To The Radio
TTITLE8=If Hollywood Don't Need You
TTITLE9=Love Me Over Again
EXTD=
EXTT0=
EXTT1=
EXTT2=
EXTT3=
EXTT4=
EXTT5=
EXTT6=
EXTT7=
EXTT8=
EXTT9=
PLAYORDER=
